# Blender 4.2.3 LTS
# www.blender.org
o Mball
v 0.600000 2.775881 -0.600000
v 0.600000 2.600000 -0.775881
v 0.775881 2.600000 -0.600000
v 0.600000 2.200000 -0.960788
v 0.960788 2.200000 -0.600000
v 0.600000 1.800000 -0.960788
v 0.960788 1.800000 -0.600000
v 1.000000 1.800000 -0.530196
v 1.000000 2.200000 -0.530196
v 1.115109 1.800000 -0.200000
v 1.115109 2.200000 -0.200000
v 1.000000 1.437045 -0.200000
v 1.000000 1.437045 0.200000
v 1.115109 1.800000 0.200000
v 1.000000 1.800000 0.530196
v 1.000000 2.200000 0.530196
v 1.115109 2.200000 0.200000
v 1.000000 2.530196 0.200000
v 1.000000 2.530196 -0.200000
v 0.960788 2.600000 0.200000
v 0.960788 2.600000 -0.200000
v 0.600000 2.960788 0.200000
v 0.600000 2.960788 -0.200000
v 0.530196 3.000000 0.200000
v 0.530196 3.000000 -0.200000
v 0.200000 3.115109 0.200000
v 0.200000 3.115109 -0.200000
v 0.200000 3.000000 0.530196
v -0.200000 3.115109 0.200000
v -0.200000 3.000000 0.530196
v -0.200000 2.960788 0.600000
v 0.200000 2.960788 0.600000
v 0.200000 2.600000 0.960788
v -0.200000 2.600000 0.960788
v -0.200000 2.530196 1.000000
v 0.200000 2.530196 1.000000
v 0.200000 2.200000 1.115109
v -0.200000 2.200000 1.115109
v -0.200000 1.800000 1.115109
v 0.200000 1.800000 1.115109
v -0.200000 1.437045 1.000000
v 0.200000 1.437045 1.000000
v 0.200000 1.400000 0.987072
v -0.200000 1.400000 0.987072
v -0.200000 1.000000 0.914047
v 0.200000 1.000000 0.914047
v -0.200000 0.600000 0.987072
v 0.200000 0.600000 0.987072
v -0.200000 0.562955 1.000000
v 0.200000 0.562955 1.000000
v 0.200000 0.200000 1.115109
v -0.200000 0.200000 1.115109
v -0.200000 -0.200000 1.115109
v 0.200000 -0.200000 1.115109
v -0.200000 -0.530196 1.000000
v 0.200000 -0.530196 1.000000
v 0.200000 -0.600000 0.960788
v -0.200000 -0.600000 0.960788
v -0.200000 -0.960788 0.600000
v 0.200000 -0.960788 0.600000
v 0.200000 -1.000000 0.530196
v -0.200000 -1.000000 0.530196
v -0.200000 -1.115109 0.200000
v 0.200000 -1.115109 0.200000
v 0.200000 -1.115109 -0.200000
v -0.200000 -1.115109 -0.200000
v 0.200000 -1.000000 -0.530196
v -0.200000 -1.000000 -0.530196
v -0.200000 -0.960788 -0.600000
v 0.200000 -0.960788 -0.600000
v 0.200000 -0.600000 -0.960788
v -0.200000 -0.600000 -0.960788
v -0.200000 -0.530196 -1.000000
v 0.200000 -0.530196 -1.000000
v 0.200000 -0.200000 -1.115109
v -0.200000 -0.200000 -1.115109
v 0.200000 0.200000 -1.115109
v -0.200000 0.200000 -1.115109
v -0.200000 0.562955 -1.000000
v 0.200000 0.562955 -1.000000
v 0.200000 0.600000 -0.987072
v -0.200000 0.600000 -0.987072
v 0.200000 1.000000 -0.914047
v -0.200000 1.000000 -0.914047
v 0.200000 1.400000 -0.987072
v -0.200000 1.400000 -0.987072
v -0.200000 1.437045 -1.000000
v 0.200000 1.437045 -1.000000
v 0.200000 1.800000 -1.115109
v -0.200000 1.800000 -1.115109
v 0.200000 2.200000 -1.115109
v -0.200000 2.200000 -1.115109
v -0.200000 2.530196 -1.000000
v 0.200000 2.530196 -1.000000
v 0.200000 2.600000 -0.960788
v -0.200000 2.600000 -0.960788
v -0.200000 2.960788 -0.600000
v 0.200000 2.960788 -0.600000
v 0.200000 3.000000 -0.530196
v -0.200000 3.000000 -0.530196
v -0.200000 3.115109 -0.200000
v -0.530196 3.000000 -0.200000
v -0.530196 3.000000 0.200000
v -0.600000 2.960788 0.200000
v -0.600000 2.960788 -0.200000
v -0.960788 2.600000 0.200000
v -0.960788 2.600000 -0.200000
v -1.000000 2.530196 0.200000
v -1.000000 2.530196 -0.200000
v -1.000000 2.200000 -0.530196
v -0.960788 2.200000 -0.600000
v -0.775881 2.600000 -0.600000
v -1.000000 1.800000 -0.530196
v -0.960788 1.800000 -0.600000
v -1.000000 1.437045 -0.200000
v -0.987072 1.400000 -0.200000
v -0.808549 1.400000 -0.600000
v -0.600000 1.400000 -0.808549
v -0.600000 1.800000 -0.960788
v -0.600000 1.000000 -0.717457
v -0.717457 1.000000 -0.600000
v -0.600000 0.600000 -0.808549
v -0.808549 0.600000 -0.600000
v -0.600000 0.200000 -0.960788
v -0.960788 0.200000 -0.600000
v -0.600000 -0.200000 -0.960788
v -0.960788 -0.200000 -0.600000
v -0.600000 -0.600000 -0.775880
v -0.775880 -0.600000 -0.600000
v -0.600000 -0.775880 -0.600000
v -1.000000 -0.530196 -0.200000
v -0.960788 -0.600000 -0.200000
v -1.000000 -0.200000 -0.530196
v -1.000000 -0.530196 0.200000
v -0.960788 -0.600000 0.200000
v -0.600000 -0.960788 0.200000
v -0.600000 -0.960788 -0.200000
v -0.600000 -0.775880 0.600000
v -0.775880 -0.600000 0.600000
v -0.530196 -1.000000 0.200000
v -0.530196 -1.000000 -0.200000
v -1.000000 -0.200000 0.530196
v -0.960788 -0.200000 0.600000
v -1.000000 0.200000 0.530196
v -0.960788 0.200000 0.600000
v -1.000000 0.562955 0.200000
v -0.987072 0.600000 0.200000
v -0.808549 0.600000 0.600000
v -0.914047 1.000000 0.200000
v -0.717457 1.000000 0.600000
v -0.987072 1.400000 0.200000
v -0.808549 1.400000 0.600000
v -1.000000 1.437045 0.200000
v -1.000000 1.800000 0.530196
v -0.960788 1.800000 0.600000
v -1.000000 2.200000 0.530196
v -0.960788 2.200000 0.600000
v -0.600000 1.800000 0.960788
v -0.600000 2.200000 0.960788
v -0.530196 2.200000 1.000000
v -0.530196 1.800000 1.000000
v -1.115109 1.800000 0.200000
v -1.115109 2.200000 0.200000
v -1.115109 1.800000 -0.200000
v -1.115109 2.200000 -0.200000
v -0.600000 1.400000 0.808549
v -0.914047 1.000000 -0.200000
v -0.987072 0.600000 -0.200000
v -0.600000 0.600000 0.808549
v -0.600000 1.000000 0.717457
v -1.000000 0.562955 -0.200000
v -1.115109 0.200000 0.200000
v -1.115109 0.200000 -0.200000
v -1.115109 -0.200000 0.200000
v -1.115109 -0.200000 -0.200000
v -1.000000 0.200000 -0.530196
v -0.600000 -0.200000 0.960788
v -0.600000 0.200000 0.960788
v -0.530196 0.200000 1.000000
v -0.530196 -0.200000 1.000000
v -0.600000 -0.600000 0.775880
v -0.530196 -0.200000 -1.000000
v -0.530196 0.200000 -1.000000
v -0.600000 2.200000 -0.960788
v -0.530196 1.800000 -1.000000
v -0.530196 2.200000 -1.000000
v -0.600000 2.600000 -0.775881
v -0.600000 2.775881 -0.600000
v -0.775881 2.600000 0.600000
v -0.600000 2.775881 0.600000
v -0.600000 2.600000 0.775881
v 0.530196 1.800000 -1.000000
v 0.530196 2.200000 -1.000000
v 0.600000 1.000000 -0.717457
v 0.600000 1.400000 -0.808549
v 0.717457 1.000000 -0.600000
v 0.808549 1.400000 -0.600000
v 0.914047 1.000000 -0.200000
v 0.987072 1.400000 -0.200000
v 0.914047 1.000000 0.200000
v 0.987072 1.400000 0.200000
v 0.987072 0.600000 0.200000
v 0.987072 0.600000 -0.200000
v 1.000000 0.562955 0.200000
v 1.000000 0.562955 -0.200000
v 0.808549 0.600000 -0.600000
v 0.960788 0.200000 -0.600000
v 1.000000 0.200000 -0.530196
v 1.000000 -0.200000 -0.530196
v 0.960788 -0.200000 -0.600000
v 0.600000 -0.200000 -0.960788
v 0.600000 0.200000 -0.960788
v 0.530196 0.200000 -1.000000
v 0.530196 -0.200000 -1.000000
v 1.115109 -0.200000 -0.200000
v 1.115109 0.200000 -0.200000
v 1.000000 -0.530196 -0.200000
v 1.000000 -0.530196 0.200000
v 1.115109 -0.200000 0.200000
v 1.000000 -0.200000 0.530196
v 1.000000 0.200000 0.530196
v 1.115109 0.200000 0.200000
v 0.960788 -0.200000 0.600000
v 0.960788 0.200000 0.600000
v 0.600000 -0.200000 0.960788
v 0.600000 0.200000 0.960788
v 0.600000 0.600000 0.808549
v 0.808549 0.600000 0.600000
v 0.600000 1.000000 0.717457
v 0.717457 1.000000 0.600000
v 0.600000 1.400000 0.808549
v 0.808549 1.400000 0.600000
v 0.600000 1.800000 0.960788
v 0.960788 1.800000 0.600000
v 0.600000 2.200000 0.960788
v 0.960788 2.200000 0.600000
v 0.600000 2.600000 0.775881
v 0.775881 2.600000 0.600000
v 0.600000 2.775881 0.600000
v 0.530196 1.800000 1.000000
v 0.530196 2.200000 1.000000
v 0.600000 -0.600000 0.775880
v 0.775880 -0.600000 0.600000
v 0.600000 -0.775880 0.600000
v 0.960788 -0.600000 0.200000
v 0.600000 -0.960788 0.200000
v 0.960788 -0.600000 -0.200000
v 0.600000 -0.960788 -0.200000
v 0.775880 -0.600000 -0.600000
v 0.600000 -0.775880 -0.600000
v 0.600000 -0.600000 -0.775880
v 0.530196 -1.000000 -0.200000
v 0.530196 -1.000000 0.200000
v 0.530196 -0.200000 1.000000
v 0.530196 0.200000 1.000000
v 0.600000 0.600000 -0.808549
vn 0.4976 0.7104 -0.4976
vn 0.4988 0.4985 -0.7090
vn 0.7104 0.4976 -0.4976
vn 0.5741 0.1815 -0.7984
vn 0.7942 0.1886 -0.5777
vn 0.5789 -0.1620 -0.7992
vn 0.8051 -0.1548 -0.5726
vn 0.9033 -0.1636 -0.3966
vn 0.8847 0.2058 -0.4182
vn 0.9754 -0.1487 -0.1627
vn 0.9734 0.1621 -0.1621
vn 0.9286 -0.3195 -0.1889
vn 0.9274 -0.3238 0.1876
vn 0.9754 -0.1487 0.1627
vn 0.8882 -0.1887 0.4190
vn 0.8958 0.1872 0.4031
vn 0.9734 0.1621 0.1621
vn 0.8926 0.4108 0.1858
vn 0.8964 0.4008 -0.1893
vn 0.7906 0.5867 0.1755
vn 0.7998 0.5718 -0.1826
vn 0.5774 0.7945 0.1882
vn 0.5718 0.7998 -0.1826
vn 0.4182 0.8847 0.2058
vn 0.4008 0.8964 -0.1893
vn 0.1621 0.9734 0.1621
vn 0.1621 0.9734 -0.1621
vn 0.2058 0.8847 0.4182
vn -0.1621 0.9734 0.1621
vn -0.1858 0.8926 0.4108
vn -0.1755 0.7906 0.5867
vn 0.1882 0.7945 0.5774
vn 0.1826 0.5718 0.7998
vn -0.1826 0.5718 0.7998
vn -0.1893 0.4008 0.8964
vn 0.1893 0.4008 0.8964
vn 0.1621 0.1621 0.9734
vn -0.1621 0.1621 0.9734
vn -0.1627 -0.1487 0.9754
vn 0.1627 -0.1487 0.9754
vn -0.1889 -0.3195 0.9286
vn 0.1889 -0.3195 0.9286
vn 0.2079 -0.2569 0.9438
vn -0.2079 -0.2569 0.9438
vn -0.2228 -0.0000 0.9749
vn 0.2228 -0.0000 0.9749
vn -0.2065 0.2633 0.9424
vn 0.2065 0.2633 0.9424
vn -0.1876 0.3238 0.9274
vn 0.1876 0.3238 0.9274
vn 0.1627 0.1487 0.9754
vn -0.1627 0.1487 0.9754
vn -0.1621 -0.1621 0.9734
vn 0.1621 -0.1621 0.9734
vn -0.1858 -0.4108 0.8926
vn 0.1858 -0.4108 0.8926
vn 0.1755 -0.5867 0.7906
vn -0.1755 -0.5867 0.7906
vn -0.1815 -0.7984 0.5741
vn 0.1886 -0.7942 0.5777
vn 0.2058 -0.8847 0.4182
vn -0.1872 -0.8958 0.4031
vn -0.1621 -0.9734 0.1621
vn 0.1621 -0.9734 0.1621
vn 0.1621 -0.9734 -0.1621
vn -0.1621 -0.9734 -0.1621
vn 0.2058 -0.8847 -0.4182
vn -0.2058 -0.8847 -0.4182
vn -0.1882 -0.7945 -0.5774
vn 0.1882 -0.7945 -0.5774
vn 0.1826 -0.5718 -0.7998
vn -0.1815 -0.5741 -0.7984
vn -0.1872 -0.4031 -0.8958
vn 0.1893 -0.4008 -0.8964
vn 0.1621 -0.1621 -0.9734
vn -0.1621 -0.1621 -0.9734
vn 0.1627 0.1487 -0.9754
vn -0.1627 0.1487 -0.9754
vn -0.2009 0.3413 -0.9182
vn 0.1889 0.3195 -0.9286
vn 0.2079 0.2569 -0.9438
vn -0.2123 0.2706 -0.9390
vn 0.2228 -0.0000 -0.9749
vn -0.2228 -0.0000 -0.9749
vn 0.2065 -0.2633 -0.9424
vn -0.2056 -0.2674 -0.9414
vn -0.1849 -0.3276 -0.9265
vn 0.1876 -0.3238 -0.9274
vn 0.1627 -0.1487 -0.9754
vn -0.1627 -0.1487 -0.9754
vn 0.1621 0.1621 -0.9734
vn -0.1621 0.1621 -0.9734
vn -0.2058 0.4182 -0.8847
vn 0.1858 0.4108 -0.8926
vn 0.1755 0.5867 -0.7906
vn -0.1882 0.5774 -0.7945
vn -0.1826 0.7998 -0.5718
vn 0.1886 0.7942 -0.5777
vn 0.2058 0.8847 -0.4182
vn -0.1893 0.8964 -0.4008
vn -0.1621 0.9734 -0.1621
vn -0.4182 0.8847 -0.2058
vn -0.4031 0.8958 0.1872
vn -0.5741 0.7984 0.1815
vn -0.5777 0.7942 -0.1886
vn -0.7998 0.5718 0.1826
vn -0.7906 0.5867 -0.1755
vn -0.8964 0.4008 0.1893
vn -0.8926 0.4108 -0.1858
vn -0.8958 0.1872 -0.4031
vn -0.7984 0.1815 -0.5741
vn -0.7090 0.4985 -0.4988
vn -0.8882 -0.1887 -0.4190
vn -0.7992 -0.1620 -0.5789
vn -0.9274 -0.3238 -0.1876
vn -0.9424 -0.2633 -0.2065
vn -0.7951 -0.2361 -0.5586
vn -0.5602 -0.2388 -0.7932
vn -0.5906 -0.1467 -0.7935
vn -0.5861 -0.0000 -0.8102
vn -0.8102 -0.0000 -0.5861
vn -0.5589 0.2365 -0.7948
vn -0.7930 0.2387 -0.5605
vn -0.5754 0.1579 -0.8025
vn -0.8051 0.1548 -0.5726
vn -0.5867 -0.1755 -0.7906
vn -0.7942 -0.1886 -0.5777
vn -0.4985 -0.4988 -0.7090
vn -0.7104 -0.4976 -0.4976
vn -0.4960 -0.7127 -0.4960
vn -0.8964 -0.4008 -0.1893
vn -0.7998 -0.5718 -0.1826
vn -0.8847 -0.2058 -0.4182
vn -0.8926 -0.4108 0.1858
vn -0.7906 -0.5867 0.1755
vn -0.5867 -0.7906 0.1755
vn -0.5774 -0.7945 -0.1882
vn -0.4985 -0.7090 0.4988
vn -0.7090 -0.4985 0.4988
vn -0.4108 -0.8926 0.1858
vn -0.4182 -0.8847 -0.2058
vn -0.8958 -0.1872 0.4031
vn -0.7984 -0.1815 0.5741
vn -0.8882 0.1887 0.4190
vn -0.7992 0.1620 0.5789
vn -0.9274 0.3238 0.1876
vn -0.9424 0.2633 0.2065
vn -0.7951 0.2361 0.5586
vn -0.9749 -0.0000 0.2228
vn -0.8102 -0.0000 0.5861
vn -0.9438 -0.2569 0.2079
vn -0.7930 -0.2387 0.5605
vn -0.9286 -0.3195 0.1889
vn -0.9033 -0.1636 0.3966
vn -0.8051 -0.1548 0.5726
vn -0.8847 0.2058 0.4182
vn -0.7942 0.1886 0.5777
vn -0.5726 -0.1548 0.8051
vn -0.5777 0.1886 0.7942
vn -0.4182 0.2058 0.8847
vn -0.3966 -0.1636 0.9033
vn -0.9754 -0.1487 0.1627
vn -0.9734 0.1621 0.1621
vn -0.9754 -0.1487 -0.1627
vn -0.9734 0.1621 -0.1621
vn -0.5605 -0.2387 0.7930
vn -0.9749 -0.0000 -0.2228
vn -0.9438 0.2569 -0.2079
vn -0.5586 0.2361 0.7951
vn -0.5861 -0.0000 0.8102
vn -0.9286 0.3195 -0.1889
vn -0.9754 0.1487 0.1627
vn -0.9754 0.1487 -0.1627
vn -0.9734 -0.1621 0.1621
vn -0.9734 -0.1621 -0.1621
vn -0.9033 0.1636 -0.3966
vn -0.5741 -0.1815 0.7984
vn -0.5789 0.1620 0.7992
vn -0.4190 0.1887 0.8882
vn -0.4031 -0.1872 0.8958
vn -0.4988 -0.4985 0.7090
vn -0.4108 -0.1858 -0.8926
vn -0.4075 0.1759 -0.8961
vn -0.5774 0.1882 -0.7945
vn -0.4089 -0.1588 -0.8987
vn -0.4182 0.2058 -0.8847
vn -0.4960 0.4960 -0.7127
vn -0.4976 0.7104 -0.4976
vn -0.7104 0.4976 0.4976
vn -0.4988 0.7090 0.4985
vn -0.4976 0.4976 0.7104
vn 0.4190 -0.1887 -0.8882
vn 0.4031 0.1872 -0.8958
vn 0.5861 -0.0000 -0.8102
vn 0.5586 -0.2361 -0.7951
vn 0.8102 -0.0000 -0.5861
vn 0.7930 -0.2387 -0.5605
vn 0.9749 -0.0000 -0.2228
vn 0.9438 -0.2569 -0.2079
vn 0.9749 -0.0000 0.2228
vn 0.9424 -0.2633 0.2065
vn 0.9438 0.2569 0.2079
vn 0.9424 0.2633 -0.2065
vn 0.9286 0.3195 0.1889
vn 0.9274 0.3238 -0.1876
vn 0.7951 0.2361 -0.5586
vn 0.7992 0.1620 -0.5789
vn 0.8882 0.1887 -0.4190
vn 0.8958 -0.1872 -0.4031
vn 0.7984 -0.1815 -0.5741
vn 0.5777 -0.1886 -0.7942
vn 0.5726 0.1548 -0.8051
vn 0.3966 0.1636 -0.9033
vn 0.4182 -0.2058 -0.8847
vn 0.9734 -0.1621 -0.1621
vn 0.9754 0.1487 -0.1627
vn 0.8926 -0.4108 -0.1858
vn 0.8964 -0.4008 0.1893
vn 0.9734 -0.1621 0.1621
vn 0.8847 -0.2058 0.4182
vn 0.9033 0.1636 0.3966
vn 0.9754 0.1487 0.1627
vn 0.7942 -0.1886 0.5777
vn 0.8051 0.1548 0.5726
vn 0.5741 -0.1815 0.7984
vn 0.5789 0.1620 0.7992
vn 0.5586 0.2361 0.7951
vn 0.7930 0.2387 0.5605
vn 0.5861 -0.0000 0.8102
vn 0.8102 -0.0000 0.5861
vn 0.5605 -0.2387 0.7930
vn 0.7951 -0.2361 0.5586
vn 0.5726 -0.1548 0.8051
vn 0.7992 -0.1620 0.5789
vn 0.5777 0.1886 0.7942
vn 0.7984 0.1815 0.5741
vn 0.4976 0.4976 0.7104
vn 0.7090 0.4985 0.4988
vn 0.4960 0.7127 0.4960
vn 0.3966 -0.1636 0.9033
vn 0.4182 0.2058 0.8847
vn 0.4988 -0.4985 0.7090
vn 0.7104 -0.4976 0.4976
vn 0.4976 -0.7104 0.4976
vn 0.7998 -0.5718 0.1826
vn 0.5718 -0.7998 0.1826
vn 0.7906 -0.5867 -0.1755
vn 0.5774 -0.7945 -0.1882
vn 0.7090 -0.4985 -0.4988
vn 0.4960 -0.7127 -0.4960
vn 0.4976 -0.4976 -0.7104
vn 0.4182 -0.8847 -0.2058
vn 0.4008 -0.8964 0.1893
vn 0.4031 -0.1872 0.8958
vn 0.4190 0.1887 0.8882
vn 0.5605 0.2387 -0.7930
s 1
f 3//3 2//2 1//1
f 2//2 3//3 5//5 4//4
f 4//4 5//5 7//7 6//6
f 7//7 5//5 9//9 8//8
f 9//9 11//11 10//10 8//8
f 8//8 10//10 12//12
f 12//12 10//10 14//14 13//13
f 14//14 15//15 13//13
f 14//14 17//17 16//16 15//15
f 16//16 17//17 18//18
f 17//17 11//11 19//19 18//18
f 19//19 21//21 20//20 18//18
f 20//20 21//21 23//23 22//22
f 23//23 25//25 24//24 22//22
f 24//24 25//25 27//27 26//26
f 28//28 24//24 26//26
f 30//30 28//28 26//26 29//29
f 32//32 28//28 30//30 31//31
f 34//34 33//33 32//32 31//31
f 36//36 33//33 34//34 35//35
f 38//38 37//37 36//36 35//35
f 40//40 37//37 38//38 39//39
f 42//42 40//40 39//39 41//41
f 44//44 43//43 42//42 41//41
f 46//46 43//43 44//44 45//45
f 48//48 46//46 45//45 47//47
f 50//50 48//48 47//47 49//49
f 52//52 51//51 50//50 49//49
f 54//54 51//51 52//52 53//53
f 56//56 54//54 53//53 55//55
f 58//58 57//57 56//56 55//55
f 60//60 57//57 58//58 59//59
f 62//62 61//61 60//60 59//59
f 64//64 61//61 62//62 63//63
f 66//66 65//65 64//64 63//63
f 68//68 67//67 65//65 66//66
f 70//70 67//67 68//68 69//69
f 72//72 71//71 70//70 69//69
f 74//74 71//71 72//72 73//73
f 76//76 75//75 74//74 73//73
f 78//78 77//77 75//75 76//76
f 80//80 77//77 78//78 79//79
f 82//82 81//81 80//80 79//79
f 84//84 83//83 81//81 82//82
f 86//86 85//85 83//83 84//84
f 88//88 85//85 86//86 87//87
f 90//90 89//89 88//88 87//87
f 92//92 91//91 89//89 90//90
f 94//94 91//91 92//92 93//93
f 96//96 95//95 94//94 93//93
f 98//98 95//95 96//96 97//97
f 100//100 99//99 98//98 97//97
f 27//27 99//99 100//100 101//101
f 100//100 102//102 101//101
f 101//101 102//102 103//103 29//29
f 103//103 102//102 105//105 104//104
f 105//105 107//107 106//106 104//104
f 106//106 107//107 109//109 108//108
f 112//112 111//111 110//110 109//109
f 107//107 112//112 109//109
f 110//110 111//111 114//114 113//113
f 114//114 117//117 116//116 115//115
f 113//113 114//114 115//115
f 117//117 114//114 119//119 118//118
f 121//121 117//117 118//118 120//120
f 123//123 121//121 120//120 122//122
f 125//125 123//123 122//122 124//124
f 127//127 125//125 124//124 126//126
f 129//129 127//127 126//126 128//128
f 129//129 128//128 130//130
f 127//127 129//129 132//132 131//131
f 133//133 127//127 131//131
f 131//131 132//132 135//135 134//134
f 135//135 132//132 137//137 136//136
f 139//139 135//135 136//136 138//138
f 137//137 141//141 140//140 136//136
f 139//139 143//143 142//142 134//134
f 135//135 139//139 134//134
f 143//143 145//145 144//144 142//142
f 145//145 148//148 147//147 146//146
f 144//144 145//145 146//146
f 150//150 149//149 147//147 148//148
f 152//152 151//151 149//149 150//150
f 152//152 155//155 154//154 153//153
f 151//151 152//152 153//153
f 155//155 157//157 156//156 154//154
f 159//159 157//157 155//155 158//158
f 161//161 160//160 159//159 158//158
f 156//156 163//163 162//162 154//154
f 163//163 156//156 108//108
f 163//163 165//165 164//164 162//162
f 162//162 164//164 115//115 153//153
f 158//158 155//155 152//152 166//166
f 154//154 162//162 153//153
f 151//151 116//116 167//167 149//149
f 149//149 167//167 168//168 147//147
f 170//170 150//150 148//148 169//169
f 147//147 168//168 171//171 146//146
f 171//171 173//173 172//172 146//146
f 172//172 173//173 175//175 174//174
f 175//175 173//173 176//176 133//133
f 172//172 144//144 146//146
f 178//178 145//145 143//143 177//177
f 180//180 179//179 178//178 177//177
f 144//144 172//172 174//174 142//142
f 177//177 143//143 139//139 181//181
f 142//142 174//174 134//134
f 174//174 175//175 131//131 134//134
f 175//175 133//133 131//131
f 176//176 125//125 127//127 133//133
f 124//124 183//183 182//182 126//126
f 123//123 125//125 176//176 171//171
f 168//168 123//123 171//171
f 167//167 121//121 123//123 168//168
f 115//115 116//116 151//151 153//153
f 164//164 113//113 115//115
f 114//114 111//111 184//184 119//119
f 184//184 186//186 185//185 119//119
f 164//164 165//165 110//110 113//113
f 111//111 112//112 187//187 184//184
f 187//187 112//112 188//188
f 157//157 189//189 106//106 108//108
f 156//156 157//157 108//108
f 109//109 165//165 163//163 108//108
f 188//188 112//112 107//107 105//105
f 104//104 106//106 189//189 190//190
f 189//189 191//191 190//190
f 92//92 186//186 93//93
f 91//91 193//193 192//192 89//89
f 185//185 186//186 92//92 90//90
f 89//89 192//192 88//88
f 185//185 90//90 87//87
f 85//85 195//195 194//194 83//83
f 195//195 197//197 196//196 194//194
f 196//196 197//197 199//199 198//198
f 198//198 199//199 201//201 200//200
f 203//203 198//198 200//200 202//202
f 205//205 203//203 202//202 204//204
f 207//207 206//206 203//203 205//205
f 208//208 207//207 205//205
f 210//210 207//207 208//208 209//209
f 212//212 207//207 210//210 211//211
f 214//214 213//213 212//212 211//211
f 208//208 216//216 215//215 209//209
f 209//209 215//215 217//217
f 217//217 215//215 219//219 218//218
f 219//219 220//220 218//218
f 219//219 222//222 221//221 220//220
f 221//221 222//222 204//204
f 221//221 224//224 223//223 220//220
f 223//223 224//224 226//226 225//225
f 224//224 228//228 227//227 226//226
f 228//228 230//230 229//229 227//227
f 230//230 232//232 231//231 229//229
f 232//232 234//234 233//233 231//231
f 234//234 236//236 235//235 233//233
f 236//236 238//238 237//237 235//235
f 237//237 238//238 239//239
f 235//235 241//241 240//240 233//233
f 243//243 223//223 225//225 242//242
f 243//243 242//242 244//244
f 246//246 245//245 243//243 244//244
f 248//248 247//247 245//245 246//246
f 250//250 249//249 247//247 248//248
f 251//251 249//249 250//250
f 253//253 252//252 248//248 246//246
f 226//226 255//255 254//254 225//225
f 245//245 247//247 217//217 218//218
f 215//215 216//216 222//222 219//219
f 222//222 216//216 205//205 204//204
f 200//200 201//201 232//232 230//230
f 118//118 86//86 84//84 120//120
f 256//256 212//212 213//213 80//80
f 81//81 256//256 80//80
f 78//78 183//183 79//79
f 77//77 213//213 214//214 75//75
f 182//182 183//183 78//78 76//76
f 75//75 214//214 74//74
f 182//182 76//76 73//73
f 71//71 251//251 250//250 70//70
f 128//128 72//72 69//69 130//130
f 248//248 252//252 67//67 70//70
f 250//250 248//248 70//70
f 69//69 68//68 141//141 137//137
f 130//130 69//69 137//137
f 141//141 68//68 66//66
f 65//65 252//252 253//253 64//64
f 140//140 141//141 66//66 63//63
f 253//253 61//61 64//64
f 62//62 140//140 63//63
f 253//253 246//246 244//244 60//60
f 61//61 253//253 60//60
f 140//140 62//62 59//59 138//138
f 136//136 140//140 138//138
f 59//59 58//58 181//181 138//138
f 242//242 225//225 254//254 56//56
f 57//57 242//242 56//56
f 55//55 180//180 177//177 181//181
f 58//58 55//55 181//181
f 254//254 54//54 56//56
f 53//53 180//180 55//55
f 254//254 255//255 51//51 54//54
f 52//52 179//179 180//180 53//53
f 179//179 52//52 49//49
f 226//226 227//227 48//48 50//50
f 255//255 226//226 50//50
f 49//49 47//47 169//169 178//178
f 179//179 49//49 178//178
f 227//227 229//229 46//46 48//48
f 47//47 45//45 170//170 169//169
f 45//45 44//44 166//166 170//170
f 231//231 233//233 240//240 42//42
f 43//43 231//231 42//42
f 41//41 161//161 158//158 166//166
f 44//44 41//41 166//166
f 240//240 40//40 42//42
f 39//39 161//161 41//41
f 240//240 241//241 37//37 40//40
f 38//38 160//160 161//161 39//39
f 160//160 38//38 35//35
f 235//235 237//237 33//33 36//36
f 241//241 235//235 36//36
f 35//35 34//34 191//191 159//159
f 160//160 35//35 159//159
f 33//33 237//237 239//239 32//32
f 191//191 34//34 31//31 190//190
f 103//103 30//30 29//29
f 26//26 27//27 101//101 29//29
f 25//25 23//23 1//1 98//98
f 99//99 25//25 98//98
f 16//16 236//236 234//234 15//15
f 201//201 199//199 12//12 13//13
f 10//10 11//11 17//17 14//14
f 192//192 193//193 4//4 6//6
f 5//5 3//3 21//21 19//19
f 9//9 5//5 19//19
f 2//2 4//4 193//193 94//94
f 95//95 2//2 94//94
f 6//6 7//7 197//197 195//195
f 21//21 3//3 1//1 23//23
f 11//11 9//9 19//19
f 197//197 7//7 8//8 12//12
f 199//199 197//197 12//12
f 238//238 20//20 22//22 239//239
f 238//238 236//236 16//16 18//18
f 20//20 238//238 18//18
f 234//234 232//232 201//201 13//13
f 15//15 234//234 13//13
f 1//1 2//2 95//95 98//98
f 193//193 91//91 94//94
f 6//6 195//195 85//85 88//88
f 192//192 6//6 88//88
f 25//25 99//99 27//27
f 22//22 24//24 28//28 32//32
f 239//239 22//22 32//32
f 37//37 241//241 36//36
f 97//97 96//96 187//187 188//188
f 96//96 93//93 186//186 184//184
f 187//187 96//96 184//184
f 185//185 87//87 86//86 118//118
f 119//119 185//185 118//118
f 100//100 97//97 188//188 105//105
f 102//102 100//100 105//105
f 110//110 165//165 109//109
f 30//30 103//103 104//104 190//190
f 31//31 30//30 190//190
f 191//191 189//189 157//157 159//159
f 194//194 196//196 206//206 256//256
f 256//256 206//206 207//207 212//212
f 211//211 210//210 249//249 251//251
f 206//206 196//196 198//198 203//203
f 216//216 208//208 205//205
f 249//249 210//210 209//209 217//217
f 247//247 249//249 217//217
f 202//202 200//200 230//230 228//228
f 228//228 224//224 221//221 204//204
f 202//202 228//228 204//204
f 223//223 243//243 245//245 218//218
f 220//220 223//223 218//218
f 83//83 194//194 256//256 81//81
f 213//213 77//77 80//80
f 211//211 251//251 71//71 74//74
f 214//214 211//211 74//74
f 67//67 252//252 65//65
f 229//229 231//231 43//43 46//46
f 51//51 255//255 50//50
f 244//244 242//242 57//57 60//60
f 120//120 84//84 82//82 122//122
f 82//82 79//79 183//183 124//124
f 122//122 82//82 124//124
f 182//182 73//73 72//72 128//128
f 126//126 182//182 128//128
f 116//116 117//117 121//121 167//167
f 176//176 173//173 171//171
f 132//132 129//129 130//130 137//137
f 166//166 152//152 150//150 170//170
f 169//169 148//148 145//145 178//178
f 181//181 139//139 138//138
