# Blender 4.2.3 LTS
# www.blender.org
o Sphere
v 0.000000 0.382683 -0.923880
v 0.000000 0.000000 -1.000000
v 0.000000 -0.382683 -0.923880
v 0.000000 -0.923880 -0.382683
v 0.146447 0.923880 -0.353553
v 0.270598 0.707107 -0.653281
v 0.353553 0.382683 -0.853553
v 0.382683 0.000000 -0.923880
v 0.353553 -0.382683 -0.853553
v 0.270598 -0.707107 -0.653281
v 0.146447 -0.923880 -0.353553
v 0.270598 0.923880 -0.270598
v 0.500000 0.707107 -0.500000
v 0.653282 0.382683 -0.653281
v 0.707107 0.000000 -0.707107
v 0.653282 -0.382683 -0.653281
v 0.500000 -0.707107 -0.500000
v 0.270598 -0.923880 -0.270598
v 0.353553 0.923880 -0.146447
v 0.653281 0.707107 -0.270598
v 0.853553 0.382683 -0.353553
v 0.923880 0.000000 -0.382683
v 0.853553 -0.382683 -0.353553
v 0.653281 -0.707107 -0.270598
v 0.353553 -0.923880 -0.146447
v 0.382683 0.923880 0.000000
v 0.707107 0.707107 0.000000
v 0.923880 0.382683 0.000000
v 1.000000 0.000000 0.000000
v 0.923880 -0.382683 0.000000
v 0.707107 -0.707107 0.000000
v 0.382683 -0.923880 0.000000
v 0.353553 0.923880 0.146447
v 0.653281 0.707107 0.270598
v 0.853553 0.382683 0.353554
v 0.923879 0.000000 0.382684
v 0.853553 -0.382683 0.353554
v 0.653281 -0.707107 0.270598
v 0.353553 -0.923880 0.146447
v 0.270598 0.923880 0.270598
v 0.500000 0.707107 0.500000
v 0.653281 0.382683 0.653282
v 0.707107 0.000000 0.707107
v 0.653281 -0.382683 0.653282
v 0.500000 -0.707107 0.500000
v 0.270598 -0.923880 0.270598
v 0.146447 0.923880 0.353553
v 0.270598 0.707107 0.653281
v 0.353553 0.382683 0.853553
v 0.382683 0.000000 0.923880
v 0.353553 -0.382683 0.853553
v 0.270598 -0.707107 0.653281
v 0.146447 -0.923880 0.353553
v -0.000000 0.923880 0.382683
v -0.000000 0.707107 0.707107
v -0.000000 0.382683 0.923879
v -0.000000 0.000000 1.000000
v -0.000000 -0.382683 0.923879
v -0.000000 -0.707107 0.707107
v -0.000000 -0.923880 0.382683
v 0.000000 -1.000000 0.000000
v 0.000000 1.000000 0.000000
v -0.146447 0.923880 0.353553
v -0.270598 0.707107 0.653281
v -0.353554 0.382683 0.853553
v -0.382684 0.000000 0.923879
v -0.353554 -0.382683 0.853553
v -0.270598 -0.707107 0.653281
v -0.146447 -0.923880 0.353553
v -0.270598 0.923880 0.270598
v -0.500000 0.707107 0.500000
v -0.653282 0.382683 0.653281
v -0.707107 0.000000 0.707106
v -0.653282 -0.382683 0.653281
v -0.500000 -0.707107 0.500000
v -0.270598 -0.923880 0.270598
v -0.353553 0.923880 0.146446
v -0.653281 0.707107 0.270598
v -0.853553 0.382683 0.353553
v -0.923880 0.000000 0.382683
v -0.853553 -0.382683 0.353553
v -0.653281 -0.707107 0.270598
v -0.353553 -0.923880 0.146446
v -0.382683 0.923880 -0.000000
v -0.707107 0.707107 -0.000000
v -0.923879 0.382683 -0.000000
v -1.000000 0.000000 -0.000001
v -0.923879 -0.382683 -0.000000
v -0.707107 -0.707107 -0.000000
v -0.382683 -0.923880 -0.000000
v -0.353553 0.923880 -0.146447
v -0.653281 0.707107 -0.270598
v -0.853553 0.382683 -0.353554
v -0.923879 0.000000 -0.382684
v -0.853553 -0.382683 -0.353554
v -0.653281 -0.707107 -0.270598
v -0.353553 -0.923880 -0.146447
v -0.270598 0.923880 -0.270598
v -0.500000 0.707107 -0.500000
v -0.653281 0.382683 -0.653282
v -0.707106 0.000000 -0.707107
v -0.653281 -0.382683 -0.653282
v -0.500000 -0.707107 -0.500000
v -0.270598 -0.923880 -0.270598
v -0.146446 0.923880 -0.353554
v -0.270598 0.707107 -0.653281
v -0.353553 0.382683 -0.853553
v -0.382683 0.000000 -0.923880
v -0.353553 -0.382683 -0.853553
v -0.270598 -0.707107 -0.653281
v -0.146446 -0.923880 -0.353554
v 0.000000 0.923880 -0.382683
v 0.000000 0.707107 -0.707107
v 0.000000 -0.707107 -0.707107
vn 0.1098 -0.8264 -0.5522
vn 0.1915 -0.1915 -0.9626
vn 0.1632 0.5481 -0.8203
vn 0.0388 0.9800 -0.1949
vn 0.0388 -0.9800 -0.1949
vn 0.1632 -0.5481 -0.8203
vn 0.1915 0.1915 -0.9626
vn 0.1098 0.8264 -0.5522
vn 0.4647 0.5481 -0.6954
vn 0.1104 0.9800 -0.1653
vn 0.1104 -0.9800 -0.1653
vn 0.4647 -0.5481 -0.6954
vn 0.5453 0.1915 -0.8161
vn 0.3128 0.8264 -0.4681
vn 0.3128 -0.8264 -0.4681
vn 0.5453 -0.1915 -0.8161
vn 0.1653 -0.9800 -0.1104
vn 0.6954 -0.5481 -0.4647
vn 0.8161 0.1915 -0.5453
vn 0.4681 0.8264 -0.3128
vn 0.4681 -0.8264 -0.3128
vn 0.8161 -0.1915 -0.5453
vn 0.6954 0.5481 -0.4647
vn 0.1653 0.9800 -0.1104
vn 0.5522 0.8264 -0.1098
vn 0.5522 -0.8264 -0.1098
vn 0.9626 -0.1915 -0.1915
vn 0.8203 0.5481 -0.1632
vn 0.1949 0.9800 -0.0388
vn 0.1949 -0.9800 -0.0388
vn 0.8203 -0.5481 -0.1632
vn 0.9626 0.1915 -0.1915
vn 0.5522 -0.8264 0.1098
vn 0.9626 -0.1915 0.1915
vn 0.8203 0.5481 0.1632
vn 0.1949 0.9800 0.0388
vn 0.1949 -0.9800 0.0388
vn 0.8203 -0.5481 0.1632
vn 0.9626 0.1915 0.1915
vn 0.5522 0.8264 0.1098
vn 0.1653 0.9800 0.1104
vn 0.1653 -0.9800 0.1104
vn 0.6954 -0.5481 0.4647
vn 0.8161 0.1915 0.5453
vn 0.4681 0.8264 0.3128
vn 0.4681 -0.8264 0.3128
vn 0.8161 -0.1915 0.5453
vn 0.6954 0.5481 0.4647
vn 0.4647 -0.5481 0.6954
vn 0.5453 0.1915 0.8161
vn 0.3128 0.8264 0.4681
vn 0.3128 -0.8264 0.4681
vn 0.5453 -0.1915 0.8161
vn 0.4647 0.5481 0.6954
vn 0.1104 0.9800 0.1653
vn 0.1104 -0.9800 0.1653
vn 0.1098 -0.8264 0.5522
vn 0.1915 -0.1915 0.9626
vn 0.1632 0.5481 0.8203
vn 0.0388 0.9800 0.1949
vn 0.0388 -0.9800 0.1949
vn 0.1632 -0.5481 0.8203
vn 0.1915 0.1915 0.9626
vn 0.1098 0.8264 0.5522
vn -0.1915 -0.1915 0.9626
vn -0.1632 0.5481 0.8203
vn -0.0388 0.9800 0.1949
vn -0.0388 -0.9800 0.1949
vn -0.1632 -0.5481 0.8203
vn -0.1915 0.1915 0.9626
vn -0.1098 0.8264 0.5522
vn -0.1098 -0.8264 0.5522
vn -0.1104 -0.9800 0.1653
vn -0.4647 -0.5481 0.6954
vn -0.5453 0.1915 0.8161
vn -0.3128 0.8264 0.4681
vn -0.3128 -0.8264 0.4681
vn -0.5453 -0.1915 0.8161
vn -0.4647 0.5481 0.6954
vn -0.1104 0.9800 0.1653
vn -0.8161 0.1915 0.5453
vn -0.4681 0.8264 0.3128
vn -0.4681 -0.8264 0.3128
vn -0.8161 -0.1915 0.5453
vn -0.6954 0.5481 0.4647
vn -0.1653 0.9800 0.1104
vn -0.1653 -0.9800 0.1104
vn -0.6954 -0.5481 0.4647
vn -0.5522 -0.8264 0.1098
vn -0.9626 -0.1915 0.1915
vn -0.8203 0.5481 0.1632
vn -0.1949 0.9800 0.0388
vn -0.1949 -0.9800 0.0388
vn -0.8203 -0.5481 0.1632
vn -0.9626 0.1915 0.1915
vn -0.5522 0.8264 0.1098
vn -0.8203 0.5481 -0.1632
vn -0.1949 0.9800 -0.0388
vn -0.1949 -0.9800 -0.0388
vn -0.8203 -0.5481 -0.1632
vn -0.9626 0.1915 -0.1915
vn -0.5522 0.8264 -0.1098
vn -0.5522 -0.8264 -0.1098
vn -0.9626 -0.1915 -0.1915
vn -0.1653 -0.9800 -0.1104
vn -0.6954 -0.5481 -0.4647
vn -0.8161 0.1915 -0.5453
vn -0.4681 0.8264 -0.3128
vn -0.4681 -0.8264 -0.3128
vn -0.8161 -0.1915 -0.5453
vn -0.6954 0.5481 -0.4647
vn -0.1653 0.9800 -0.1104
vn -0.3128 0.8264 -0.4681
vn -0.3128 -0.8264 -0.4681
vn -0.5453 -0.1915 -0.8161
vn -0.4647 0.5481 -0.6954
vn -0.1104 0.9800 -0.1653
vn -0.1104 -0.9800 -0.1653
vn -0.4647 -0.5481 -0.6954
vn -0.5453 0.1915 -0.8161
vn -0.1098 -0.8264 -0.5522
vn -0.1915 -0.1915 -0.9626
vn -0.1632 0.5481 -0.8203
vn -0.0388 0.9800 -0.1949
vn -0.0388 -0.9800 -0.1949
vn -0.1632 -0.5481 -0.8203
vn -0.1915 0.1915 -0.9626
vn -0.1098 0.8264 -0.5522
vt 0.750000 0.125000
vt 0.750000 0.250000
vt 0.687500 0.250000
vt 0.687500 0.125000
vt 0.750000 0.375000
vt 0.750000 0.500000
vt 0.687500 0.500000
vt 0.687500 0.375000
vt 0.750000 0.625000
vt 0.750000 0.750000
vt 0.687500 0.750000
vt 0.687500 0.625000
vt 0.750000 0.875000
vt 0.718750 1.000000
vt 0.687500 0.875000
vt 0.718750 0.000000
vt 0.625000 0.750000
vt 0.625000 0.625000
vt 0.656250 1.000000
vt 0.625000 0.875000
vt 0.656250 0.000000
vt 0.625000 0.125000
vt 0.625000 0.375000
vt 0.625000 0.250000
vt 0.625000 0.500000
vt 0.593750 0.000000
vt 0.562500 0.125000
vt 0.562500 0.375000
vt 0.562500 0.250000
vt 0.562500 0.625000
vt 0.562500 0.500000
vt 0.562500 0.875000
vt 0.562500 0.750000
vt 0.593750 1.000000
vt 0.500000 0.875000
vt 0.500000 0.750000
vt 0.500000 0.250000
vt 0.500000 0.125000
vt 0.500000 0.500000
vt 0.500000 0.375000
vt 0.500000 0.625000
vt 0.531250 1.000000
vt 0.531250 0.000000
vt 0.437500 0.250000
vt 0.437500 0.125000
vt 0.437500 0.500000
vt 0.437500 0.375000
vt 0.437500 0.750000
vt 0.437500 0.625000
vt 0.468750 1.000000
vt 0.437500 0.875000
vt 0.468750 0.000000
vt 0.406250 1.000000
vt 0.375000 0.875000
vt 0.406250 0.000000
vt 0.375000 0.125000
vt 0.375000 0.375000
vt 0.375000 0.250000
vt 0.375000 0.625000
vt 0.375000 0.500000
vt 0.375000 0.750000
vt 0.312500 0.375000
vt 0.312500 0.250000
vt 0.312500 0.625000
vt 0.312500 0.500000
vt 0.312500 0.875000
vt 0.312500 0.750000
vt 0.312500 0.125000
vt 0.343750 1.000000
vt 0.343750 0.000000
vt 0.250000 0.250000
vt 0.250000 0.125000
vt 0.250000 0.500000
vt 0.250000 0.375000
vt 0.250000 0.750000
vt 0.250000 0.625000
vt 0.281250 1.000000
vt 0.250000 0.875000
vt 0.281250 0.000000
vt 0.187500 0.500000
vt 0.187500 0.375000
vt 0.187500 0.750000
vt 0.187500 0.625000
vt 0.218750 1.000000
vt 0.187500 0.875000
vt 0.218750 0.000000
vt 0.187500 0.125000
vt 0.187500 0.250000
vt 0.156250 0.000000
vt 0.125000 0.125000
vt 0.125000 0.375000
vt 0.125000 0.250000
vt 0.125000 0.625000
vt 0.125000 0.500000
vt 0.125000 0.875000
vt 0.125000 0.750000
vt 0.156250 1.000000
vt 0.062500 0.625000
vt 0.062500 0.500000
vt 0.062500 0.875000
vt 0.062500 0.750000
vt 0.062500 0.250000
vt 0.062500 0.125000
vt 0.062500 0.375000
vt 0.093750 1.000000
vt 0.093750 0.000000
vt 0.000000 0.250000
vt 0.000000 0.125000
vt 0.000000 0.500000
vt 0.000000 0.375000
vt 0.000000 0.750000
vt 0.000000 0.625000
vt 0.031250 1.000000
vt 0.000000 0.875000
vt 0.031250 0.000000
vt 1.000000 0.625000
vt 1.000000 0.750000
vt 0.937500 0.750000
vt 0.937500 0.625000
vt 1.000000 0.875000
vt 0.968750 1.000000
vt 0.937500 0.875000
vt 0.968750 0.000000
vt 1.000000 0.125000
vt 0.937500 0.125000
vt 1.000000 0.250000
vt 1.000000 0.375000
vt 0.937500 0.375000
vt 0.937500 0.250000
vt 1.000000 0.500000
vt 0.937500 0.500000
vt 0.906250 0.000000
vt 0.875000 0.125000
vt 0.875000 0.375000
vt 0.875000 0.250000
vt 0.875000 0.625000
vt 0.875000 0.500000
vt 0.875000 0.875000
vt 0.875000 0.750000
vt 0.906250 1.000000
vt 0.812500 0.875000
vt 0.812500 0.750000
vt 0.812500 0.250000
vt 0.812500 0.125000
vt 0.812500 0.500000
vt 0.812500 0.375000
vt 0.812500 0.625000
vt 0.843750 1.000000
vt 0.843750 0.000000
vt 0.781250 1.000000
vt 0.781250 0.000000
s 0
f 4/1/1 114/2/1 10/3/1 11/4/1
f 3/5/2 2/6/2 8/7/2 9/8/2
f 1/9/3 113/10/3 6/11/3 7/12/3
f 112/13/4 62/14/4 5/15/4
f 61/16/5 4/1/5 11/4/5
f 114/2/6 3/5/6 9/8/6 10/3/6
f 2/6/7 1/9/7 7/12/7 8/7/7
f 113/10/8 112/13/8 5/15/8 6/11/8
f 7/12/9 6/11/9 13/17/9 14/18/9
f 5/15/10 62/19/10 12/20/10
f 61/21/11 11/4/11 18/22/11
f 10/3/12 9/8/12 16/23/12 17/24/12
f 8/7/13 7/12/13 14/18/13 15/25/13
f 6/11/14 5/15/14 12/20/14 13/17/14
f 11/4/15 10/3/15 17/24/15 18/22/15
f 9/8/16 8/7/16 15/25/16 16/23/16
f 61/26/17 18/22/17 25/27/17
f 17/24/18 16/23/18 23/28/18 24/29/18
f 15/25/19 14/18/19 21/30/19 22/31/19
f 13/17/20 12/20/20 19/32/20 20/33/20
f 18/22/21 17/24/21 24/29/21 25/27/21
f 16/23/22 15/25/22 22/31/22 23/28/22
f 14/18/23 13/17/23 20/33/23 21/30/23
f 12/20/24 62/34/24 19/32/24
f 20/33/25 19/32/25 26/35/25 27/36/25
f 25/27/26 24/29/26 31/37/26 32/38/26
f 23/28/27 22/31/27 29/39/27 30/40/27
f 21/30/28 20/33/28 27/36/28 28/41/28
f 19/32/29 62/42/29 26/35/29
f 61/43/30 25/27/30 32/38/30
f 24/29/31 23/28/31 30/40/31 31/37/31
f 22/31/32 21/30/32 28/41/32 29/39/32
f 32/38/33 31/37/33 38/44/33 39/45/33
f 30/40/34 29/39/34 36/46/34 37/47/34
f 28/41/35 27/36/35 34/48/35 35/49/35
f 26/35/36 62/50/36 33/51/36
f 61/52/37 32/38/37 39/45/37
f 31/37/38 30/40/38 37/47/38 38/44/38
f 29/39/39 28/41/39 35/49/39 36/46/39
f 27/36/40 26/35/40 33/51/40 34/48/40
f 33/51/41 62/53/41 40/54/41
f 61/55/42 39/45/42 46/56/42
f 38/44/43 37/47/43 44/57/43 45/58/43
f 36/46/44 35/49/44 42/59/44 43/60/44
f 34/48/45 33/51/45 40/54/45 41/61/45
f 39/45/46 38/44/46 45/58/46 46/56/46
f 37/47/47 36/46/47 43/60/47 44/57/47
f 35/49/48 34/48/48 41/61/48 42/59/48
f 45/58/49 44/57/49 51/62/49 52/63/49
f 43/60/50 42/59/50 49/64/50 50/65/50
f 41/61/51 40/54/51 47/66/51 48/67/51
f 46/56/52 45/58/52 52/63/52 53/68/52
f 44/57/53 43/60/53 50/65/53 51/62/53
f 42/59/54 41/61/54 48/67/54 49/64/54
f 40/54/55 62/69/55 47/66/55
f 61/70/56 46/56/56 53/68/56
f 53/68/57 52/63/57 59/71/57 60/72/57
f 51/62/58 50/65/58 57/73/58 58/74/58
f 49/64/59 48/67/59 55/75/59 56/76/59
f 47/66/60 62/77/60 54/78/60
f 61/79/61 53/68/61 60/72/61
f 52/63/62 51/62/62 58/74/62 59/71/62
f 50/65/63 49/64/63 56/76/63 57/73/63
f 48/67/64 47/66/64 54/78/64 55/75/64
f 58/74/65 57/73/65 66/80/65 67/81/65
f 56/76/66 55/75/66 64/82/66 65/83/66
f 54/78/67 62/84/67 63/85/67
f 61/86/68 60/72/68 69/87/68
f 59/71/69 58/74/69 67/81/69 68/88/69
f 57/73/70 56/76/70 65/83/70 66/80/70
f 55/75/71 54/78/71 63/85/71 64/82/71
f 60/72/72 59/71/72 68/88/72 69/87/72
f 61/89/73 69/87/73 76/90/73
f 68/88/74 67/81/74 74/91/74 75/92/74
f 66/80/75 65/83/75 72/93/75 73/94/75
f 64/82/76 63/85/76 70/95/76 71/96/76
f 69/87/77 68/88/77 75/92/77 76/90/77
f 67/81/78 66/80/78 73/94/78 74/91/78
f 65/83/79 64/82/79 71/96/79 72/93/79
f 63/85/80 62/97/80 70/95/80
f 73/94/81 72/93/81 79/98/81 80/99/81
f 71/96/82 70/95/82 77/100/82 78/101/82
f 76/90/83 75/92/83 82/102/83 83/103/83
f 74/91/84 73/94/84 80/99/84 81/104/84
f 72/93/85 71/96/85 78/101/85 79/98/85
f 70/95/86 62/105/86 77/100/86
f 61/106/87 76/90/87 83/103/87
f 75/92/88 74/91/88 81/104/88 82/102/88
f 83/103/89 82/102/89 89/107/89 90/108/89
f 81/104/90 80/99/90 87/109/90 88/110/90
f 79/98/91 78/101/91 85/111/91 86/112/91
f 77/100/92 62/113/92 84/114/92
f 61/115/93 83/103/93 90/108/93
f 82/102/94 81/104/94 88/110/94 89/107/94
f 80/99/95 79/98/95 86/112/95 87/109/95
f 78/101/96 77/100/96 84/114/96 85/111/96
f 86/116/97 85/117/97 92/118/97 93/119/97
f 84/120/98 62/121/98 91/122/98
f 61/123/99 90/124/99 97/125/99
f 89/126/100 88/127/100 95/128/100 96/129/100
f 87/130/101 86/116/101 93/119/101 94/131/101
f 85/117/102 84/120/102 91/122/102 92/118/102
f 90/124/103 89/126/103 96/129/103 97/125/103
f 88/127/104 87/130/104 94/131/104 95/128/104
f 61/132/105 97/125/105 104/133/105
f 96/129/106 95/128/106 102/134/106 103/135/106
f 94/131/107 93/119/107 100/136/107 101/137/107
f 92/118/108 91/122/108 98/138/108 99/139/108
f 97/125/109 96/129/109 103/135/109 104/133/109
f 95/128/110 94/131/110 101/137/110 102/134/110
f 93/119/111 92/118/111 99/139/111 100/136/111
f 91/122/112 62/140/112 98/138/112
f 99/139/113 98/138/113 105/141/113 106/142/113
f 104/133/114 103/135/114 110/143/114 111/144/114
f 102/134/115 101/137/115 108/145/115 109/146/115
f 100/136/116 99/139/116 106/142/116 107/147/116
f 98/138/117 62/148/117 105/141/117
f 61/149/118 104/133/118 111/144/118
f 103/135/119 102/134/119 109/146/119 110/143/119
f 101/137/120 100/136/120 107/147/120 108/145/120
f 111/144/121 110/143/121 114/2/121 4/1/121
f 109/146/122 108/145/122 2/6/122 3/5/122
f 107/147/123 106/142/123 113/10/123 1/9/123
f 105/141/124 62/150/124 112/13/124
f 61/151/125 111/144/125 4/1/125
f 110/143/126 109/146/126 3/5/126 114/2/126
f 108/145/127 107/147/127 1/9/127 2/6/127
f 106/142/128 105/141/128 112/13/128 113/10/128
